<?xml version="1.0" standalone="no"?>
<!DOCTYPE svg PUBLIC "-//W3C//DTD SVG 20010904//EN"
 "http://www.w3.org/TR/2001/REC-SVG-20010904/DTD/svg10.dtd">
<svg version="1.0" xmlns="http://www.w3.org/2000/svg"
 width="700.000000pt" height="700.000000pt" viewBox="0 0 700.000000 700.000000"
 preserveAspectRatio="xMidYMid meet">
<metadata>
Created by potrace 1.14, written by Peter Selinger 2001-2017
</metadata>
<g transform="translate(0.000000,700.000000) scale(0.100000,-0.100000)"
fill="#000000" stroke="none">
<path d="M2170 6989 c-36 -4 -101 -10 -145 -13 -44 -4 -96 -8 -115 -11 -38 -5
-81 -9 -265 -25 -66 -6 -138 -12 -160 -15 -22 -2 -71 -7 -110 -10 -38 -3 -113
-10 -165 -15 -52 -6 -174 -17 -270 -25 l-175 -15 -100 -104 c-55 -56 -174
-181 -265 -277 -91 -95 -203 -213 -249 -261 -47 -49 -99 -105 -118 -126 l-33
-37 0 -596 1 -597 104 -303 c191 -561 313 -913 339 -989 15 -41 46 -133 69
-204 48 -146 14 -101 342 -460 6 -6 53 -58 105 -116 52 -58 118 -130 146 -160
43 -46 73 -79 159 -176 43 -47 184 -202 200 -218 11 -12 56 -61 100 -110 44
-50 91 -101 105 -116 14 -14 44 -48 68 -75 24 -26 78 -87 122 -134 43 -47 87
-95 97 -107 10 -12 55 -61 100 -110 45 -49 90 -98 100 -110 10 -12 55 -61 100
-110 45 -49 90 -99 101 -111 10 -13 46 -51 78 -86 32 -35 75 -81 94 -103 43
-48 343 -377 350 -384 3 -3 66 -72 140 -155 74 -82 144 -159 155 -170 11 -12
54 -59 95 -105 75 -83 178 -196 214 -233 19 -20 19 -20 39 4 22 28 122 142
188 214 25 27 114 129 199 225 85 96 157 177 160 180 3 3 52 59 110 125 57 66
107 122 110 125 3 3 71 79 150 170 79 91 147 167 150 170 3 3 39 43 80 90 41
47 77 87 80 90 3 3 52 59 110 125 57 66 109 125 115 131 6 6 35 39 65 74 30
34 60 68 65 74 14 14 240 271 319 361 92 104 234 265 275 310 20 22 65 74 101
115 36 41 70 80 75 86 21 23 144 162 218 247 42 48 110 124 150 170 41 45 82
92 92 104 18 21 77 167 459 1138 97 248 184 465 192 483 12 27 14 131 14 631
l0 597 -152 151 c-84 83 -182 179 -218 213 -36 34 -151 147 -257 251 -134 132
-198 189 -215 190 -13 0 -30 2 -38 3 -8 2 -55 7 -105 10 -49 4 -97 9 -105 11
-8 2 -51 6 -95 10 -44 3 -98 8 -120 10 -22 2 -65 7 -95 9 -30 3 -100 10 -155
15 -55 6 -127 13 -160 16 -33 3 -81 7 -107 10 -69 7 -133 13 -208 20 -36 3
-81 8 -100 10 -19 2 -69 7 -110 10 l-75 5 -38 -47 c-20 -27 -49 -62 -65 -79
-35 -40 -65 -75 -401 -469 -156 -181 -302 -352 -325 -380 -117 -135 -246 -286
-286 -334 -25 -29 -51 -60 -58 -67 -14 -14 -12 -16 -311 335 -25 30 -50 59
-56 65 -5 6 -35 41 -65 76 -30 36 -65 76 -77 90 -11 14 -162 189 -333 390
-172 201 -323 377 -336 392 -25 29 -39 31 -164 17z"/>
</g>
</svg>
